<?xml version="1.0"?>
<svg xmlns="http://www.w3.org/2000/svg" id="_x33_0" enable-background="new 0 0 64 64" height="512px" viewBox="0 0 64 64" width="512px" class=""><g><g><path d="m41 17v-3.324c0-.228.017-.453.042-.676h-.042c-1.103 0-2 .897-2 2s.897 2 2 2z" data-original="#000000" class="active-path" data-old_color="#000000" fill="#0F7A8A"/><path d="m41.084 29h2.312l-.496-1.011c-.631.287-1.237.625-1.816 1.011z" data-original="#000000" class="active-path" data-old_color="#000000" fill="#0F7A8A"/><path d="m35 31h4v2h-4z" data-original="#000000" class="active-path" data-old_color="#000000" fill="#0F7A8A"/><path d="m5 23.565c0 3.09 1.476 6.042 3.947 7.896l2.766 2.074c.828-1.548 1.27-3.268 1.286-5.035l-2.266-1.7c-1.086-.815-1.733-2.111-1.733-3.467 0-2.31 1.815-4.202 4.095-4.326.245-1.268.96-2.385 2.002-3.152-.061-.276-.097-.561-.097-.855 0-2.206 1.794-4 4-4h1v2h-1c-1.103 0-2 .897-2 2s.897 2 2 2h5c2.757 0 5-2.243 5-5s-2.243-5-5-5h-12.472c-3.599 0-6.528 2.929-6.528 6.528 0 1.66.655 3.193 1.767 4.335-.229.326-.511.82-.964 1.846-.517 1.217-.803 2.534-.803 3.856z" data-original="#000000" class="active-path" data-old_color="#000000" fill="#0F7A8A"/><path d="m52.88 3h-7.76c-3.37 0-6.12 2.75-6.12 6.12 0 .5.06 1 .18 1.49l.19.74c.5-.22 1.05-.35 1.63-.35h.64c.46-.92 1.15-1.73 2.03-2.32l.77-.51 1.11 1.66-.77.52c-1.11.74-1.78 1.99-1.78 3.33v5.32c0 2.21 1.79 4 4 4h4c2.21 0 4-1.79 4-4v-6.32l-1.59-.64c-2.07-.83-3.41-2.81-3.41-5.04h2c0 1.41.85 2.66 2.16 3.19l2.03.81h.81c.58 0 1.13.13 1.63.35l.19-.75c.12-.48.18-.98.18-1.48 0-3.37-2.75-6.12-6.12-6.12zm-6.88 4h2v.17c0 1.54.62 3.04 1.71 4.12l-1.42 1.42c-1.45-1.46-2.29-3.48-2.29-5.54zm0 8c-.55 0-1-.45-1-1s.45-1 1-1 1 .45 1 1-.45 1-1 1zm6-2c.55 0 1 .45 1 1s-.45 1-1 1-1-.45-1-1 .45-1 1-1zm-1 4h2c0 2.21-1.79 4-4 4h-2v-2h2c1.1 0 2-.9 2-2z" data-original="#000000" class="active-path" data-old_color="#000000" fill="#0F7A8A"/><path d="m57 13v4c1.103 0 2-.897 2-2s-.897-2-2-2z" data-original="#000000" class="active-path" data-old_color="#000000" fill="#0F7A8A"/><path d="m44.79 27.301.664 1.354 1.557-.779-1.219-.813c-.339.067-.672.146-1.002.238z" data-original="#000000" class="active-path" data-old_color="#000000" fill="#0F7A8A"/><path d="m47.289 25.657 1.711 1.141 1.711-1.141-.329-.657h-2.764z" data-original="#000000" class="active-path" data-old_color="#000000" fill="#0F7A8A"/><path d="m52.546 28.655.666-1.358c-.331-.093-.67-.163-1.009-.23l-1.214.809z" data-original="#000000" class="active-path" data-old_color="#000000" fill="#0F7A8A"/><path d="m23.737 45h-6.737v16h8v-8h2v8h6.763l-.866-4.044c-1.113-5.19-4.45-9.531-9.16-11.956z" data-original="#000000" class="active-path" data-old_color="#000000" fill="#0F7A8A"/><path d="m45.676 35c-.571 0-1.077.364-1.258.906l-.58 1.74c.702.55 1.162 1.395 1.162 2.354v3h-2v-3c0-.552-.448-1-1-1s-1 .448-1 1v5h4.061.505c.915-1.054 1.434-2.428 1.434-3.828v-4.848c0-.73-.594-1.324-1.324-1.324z" data-original="#000000" class="active-path" data-old_color="#000000" fill="#0F7A8A"/><path d="m35.292 58.589.517 2.411h8.252l.875-14h-4.296z" data-original="#000000" class="active-path" data-old_color="#000000" fill="#0F7A8A"/><path d="m41 31v2c0 1.1-.9 2-2 2h-4c-1.1 0-2-.9-2-2v-2h-4v15.28c2.65 2.45 4.57 5.59 5.55 9.14l3.89-8.42h-7.44v-2h8v-2h-8v-2h8v-1c0-.35.07-.69.18-1h-4.18v-2h6.95l.57-1.73c.38-1.14 1.34-1.96 2.48-2.19v-2.08zm-8 8h-2v-2h2z" data-original="#000000" class="active-path" data-old_color="#000000" fill="#0F7A8A"/><path d="m60.542 32.616c-1.353-2.031-3.259-3.614-5.449-4.615l-1.639 3.343-4.454-2.226-2.168 1.084c.107.245.168.514.168.798v2.279c1.175.513 2 1.683 2 3.045v4.848c0 1.343-.361 2.665-1.011 3.828h13.011v-11.697z" data-original="#000000" class="active-path" data-old_color="#000000" fill="#0F7A8A"/><path d="m25.448 33.605c.722-.691 1.244-1.589 1.451-2.605h-3.769c.313 1.178 1.168 2.15 2.318 2.605z" data-original="#000000" class="active-path" data-old_color="#000000" fill="#0F7A8A"/><path d="m10.281 43h12.439l-.5-2h-11.439z" data-original="#000000" class="active-path" data-old_color="#000000" fill="#0F7A8A"/><path d="m26.67 18.47c-.82.34-1.72.53-2.67.53h-5c-1.18 0-2.23-.52-2.97-1.34-.65.59-1.03 1.43-1.03 2.34v1h-1.67c-1.28 0-2.33 1.05-2.33 2.33 0 .73.35 1.43.93 1.87l3.07 2.3v.9c0 2.44-.69 4.82-2 6.88v3.72h6v-4h3c.51 0 .99-.1 1.45-.24-1.5-1.08-2.45-2.82-2.45-4.76v-1h6v-2.62l1.98-.99c-.2-2.61-1.58-5.54-2.31-6.92zm-3.67 6.04c-1.65 0-3-1.35-3-3h2c0 .55.45 1 1 1s1-.45 1-1h2c0 1.65-1.35 3-3 3z" data-original="#000000" class="active-path" data-old_color="#000000" fill="#0F7A8A"/><path d="m3 57.603v3.397h4v-8h2v8h6v-16h-5.664c-3.971 2.957-6.336 7.641-6.336 12.603z" data-original="#000000" class="active-path" data-old_color="#000000" fill="#0F7A8A"/></g></g> </svg>
