<?xml version="1.0"?>
<svg xmlns="http://www.w3.org/2000/svg" height="512px" viewBox="-9 0 511 512" width="512px" class=""><g><path d="m340.8125 493.476562.804688-.382812c2.375-.894531 4.28125-2.722656 5.265624-5.0625.929688-2.246094.929688-4.773438-.007812-7.019531l-3.582031-8.644531c-5.914063 2.757812-11.941407 5.308593-18.113281 7.5625l3.578124 8.636718c.945313 2.253906 2.75 4.035156 5.007813 4.957032 2.261719.921874 4.796875.90625 7.046875-.046876zm0 0" data-original="#000000" class="active-path" data-old_color="#000000" fill="#0F7A8A"/><path d="m86.144531 440.214844 6.554688-6.601563c-4.808594-4.410156-9.425781-9.019531-13.84375-13.828125l-6.613281 6.613282c-1.746094 1.6875-2.734376 4.011718-2.742188 6.4375-.007812 2.429687.964844 4.757812 2.695312 6.460937l.949219.941406c3.605469 3.554688 9.402344 3.546875 13-.023437zm0 0" data-original="#000000" class="active-path" data-old_color="#000000" fill="#0F7A8A"/><path d="m9.644531 275.292969h9.03125c-.144531-3.371094-.253906-6.746094-.253906-10.148438 0-3.191406.109375-6.351562.238281-9.511719h-9.015625c-5.050781.007813-9.140625 4.097657-9.144531 9.144532v1.371094c.003906 5.046874 4.09375 9.136718 9.144531 9.144531zm0 0" data-original="#000000" class="active-path" data-old_color="#000000" fill="#0F7A8A"/><path d="m31.394531 365.398438 8.558594-3.546876c-2.765625-5.894531-5.324219-11.90625-7.589844-18.058593l-8.449219 3.492187c-2.253906.917969-4.042968 2.703125-4.960937 4.957032-.921875 2.210937-.914063 4.699218.023437 6.90625l.554688 1.40625c1.976562 4.570312 7.246094 6.722656 11.855469 4.84375zm0 0" data-original="#000000" class="active-path" data-old_color="#000000" fill="#0F7A8A"/><path d="m147.097656 481.03125c-.925781 2.242188-.925781 4.757812 0 7 .910156 2.230469 2.683594 3.996094 4.910156 4.90625l1.546876.707031c4.644531 1.738281 9.832031-.539062 11.695312-5.136719l3.554688-8.578124c-6.175782-2.253907-12.203126-4.804688-18.113282-7.5625zm0 0" data-original="#000000" class="active-path" data-old_color="#000000" fill="#0F7A8A"/><path d="m23.910156 183.632812 8.261719 3.410157c2.238281-6.132813 4.769531-12.125 7.507813-18.003907l-8.296876-3.421874c-2.214843-.960938-4.722656-.980469-6.953124-.054688-2.253907.917969-4.042969 2.707031-4.957032 4.960938l-.402344 1.035156c-1 2.238281-1.050781 4.789062-.136718 7.0625.910156 2.277344 2.707031 4.085937 4.976562 5.011718zm0 0" data-original="#000000" class="active-path" data-old_color="#000000" fill="#0F7A8A"/><path d="m247.632812 512c5.046876-.003906 9.136719-4.09375 9.140626-9.144531v-9.390625c-3.246094.140625-6.5.25-9.78125.25s-6.539063-.109375-9.785157-.25v9.390625c.007813 5.050781 4.097657 9.140625 9.144531 9.144531zm0 0" data-original="#000000" class="active-path" data-old_color="#000000" fill="#0F7A8A"/><path d="m421.742188 104.53125c1.742187-1.691406 2.730468-4.011719 2.738281-6.441406.011719-2.429688-.960938-4.757813-2.695313-6.460938l-.945312-.941406c-3.605469-3.570312-9.417969-3.554688-13.007813.027344l-6.222656 6.269531c4.800781 4.417969 9.414063 9.035156 13.832031 13.847656zm0 0" data-original="#000000" class="active-path" data-old_color="#000000" fill="#0F7A8A"/><path d="m346.882812 49.890625c.929688-2.238281.929688-4.757813 0-6.996094-.910156-2.230469-2.679687-4-4.910156-4.90625l-1.542968-.707031c-4.65625-1.730469-9.84375.574219-11.679688 5.191406l-3.300781 7.972656c6.160156 2.257813 12.167969 4.816407 18.066406 7.574219zm0 0" data-original="#000000" class="active-path" data-old_color="#000000" fill="#0F7A8A"/><path d="m470.0625 183.636719c2.253906-.914063 4.042969-2.699219 4.964844-4.953125.917968-2.210938.910156-4.703125-.027344-6.90625l-.554688-1.40625c-1.949218-4.558594-7.207031-6.691406-11.785156-4.78125l-8.355468 3.449218c2.734374 5.878907 5.269531 11.871094 7.503906 18.003907zm0 0" data-original="#000000" class="active-path" data-old_color="#000000" fill="#0F7A8A"/><path d="m265.277344 18.285156c0 10.097656-8.1875 18.285156-18.285156 18.285156-10.101563 0-18.285157-8.1875-18.285157-18.285156s8.183594-18.285156 18.285157-18.285156c10.097656 0 18.285156 8.1875 18.285156 18.285156zm0 0" data-original="#000000" class="active-path" data-old_color="#000000" fill="#0F7A8A"/><path d="m78.542969 110.828125c4.410156-4.808594 9.019531-9.421875 13.828125-13.84375l-6.292969-6.335937c-3.589844-3.523438-9.34375-3.511719-12.921875.019531l-.9375.933593c-1.738281 1.691407-2.71875 4.015626-2.722656 6.441407-.003906 2.429687.972656 4.753906 2.707031 6.449219zm0 0" data-original="#000000" class="active-path" data-old_color="#000000" fill="#0F7A8A"/><path d="m150.46875 58.019531c5.898438-2.757812 11.90625-5.316406 18.066406-7.574219l-3.3125-8.003906c-.929687-2.261718-2.726562-4.0625-4.988281-5s-4.804687-.9375-7.0625.003906l-.804687.386719c-2.375.890625-4.28125 2.722657-5.269532 5.0625-.929687 2.246094-.925781 4.769531.011719 7.015625zm0 0" data-original="#000000" class="active-path" data-old_color="#000000" fill="#0F7A8A"/><path d="m420.8125 440.257812.945312-.9375c1.738282-1.691406 2.71875-4.007812 2.726563-6.433593.003906-2.421875-.96875-4.746094-2.699219-6.445313l-6.660156-6.65625c-4.417969 4.800782-9.03125 9.410156-13.839844 13.828125l6.617188 6.664063c3.582031 3.527344 9.335937 3.519531 12.910156-.019532zm0 0" data-original="#000000" class="active-path" data-old_color="#000000" fill="#0F7A8A"/><path d="m283.5625 265.46875c-.035156 6.503906-1.820312 12.875-5.175781 18.449219l13.167969 13.101562c11.042968-15.351562 13.378906-35.316406 6.167968-52.800781-7.207031-17.484375-22.933594-30.003906-41.589844-33.109375v19.082031c16.109376 4.144532 27.382813 18.644532 27.429688 35.277344zm0 0" data-original="#000000" class="active-path" data-old_color="#000000" fill="#0F7A8A"/><path d="m182.992188 347.429688c10.09375-.011719 18.273437-8.191407 18.285156-18.285157-.019532-3.25-.910156-6.433593-2.582032-9.21875-2.296874-2.023437-4.460937-4.191406-6.488281-6.484375-2.78125-1.675781-5.96875-2.566406-9.214843-2.585937-10.101563 0-18.285157 8.1875-18.285157 18.289062 0 10.097657 8.183594 18.285157 18.285157 18.285157zm0 0" data-original="#000000" class="active-path" data-old_color="#000000" fill="#0F7A8A"/><path d="m265.277344 265.46875c0 10.097656-8.1875 18.285156-18.285156 18.285156-10.101563 0-18.285157-8.1875-18.285157-18.285156s8.183594-18.285156 18.285157-18.285156c10.097656 0 18.285156 8.1875 18.285156 18.285156zm0 0" data-original="#000000" class="active-path" data-old_color="#000000" fill="#0F7A8A"/><path d="m212.535156 307.769531c19.035156 15.472657 46.050782 16.347657 66.050782 2.144531l-13.125-13.0625c-5.578126 3.359376-11.957032 5.152344-18.46875 5.1875-18.402344.039063-33.953126-13.632812-36.277344-31.886718-2.324219-18.253906 9.308594-35.382813 27.132812-39.957032v-19.085937c-19.214844 3.214844-35.273437 16.398437-42.167968 34.621094-6.898438 18.222656-3.589844 38.734375 8.683593 53.867187 3.136719 2.273438 5.894531 5.035156 8.171875 8.171875zm0 0" data-original="#000000" class="active-path" data-old_color="#000000" fill="#0F7A8A"/><path d="m246.992188 438.855469c95.9375 0 173.714843-77.773438 173.714843-173.710938 0-95.941406-77.777343-173.714843-173.714843-173.714843-95.941407 0-173.714844 77.773437-173.714844 173.714843.109375 95.894531 77.820312 173.605469 173.714844 173.710938zm-60.65625-50.375c-1.847657 3.203125-5.441407 4.976562-9.109376 4.496093-3.667968-.484374-6.683593-3.125-7.640624-6.699218-.957032-3.570313.332031-7.371094 3.265624-9.621094 2.9375-2.25 6.9375-2.511719 10.140626-.664062 4.371093 2.527343 5.867187 8.117187 3.34375 12.488281zm60.65625 22.949219c-5.050782 0-9.144532-4.09375-9.144532-9.144532 0-5.050781 4.09375-9.140625 9.144532-9.140625 5.046874 0 9.140624 4.089844 9.140624 9.140625 0 5.050782-4.09375 9.144532-9.140624 9.144532zm73.140624-19.601563c-3.199218 1.851563-7.203124 1.589844-10.136718-.664063-2.933594-2.25-4.222656-6.046874-3.265625-9.617187.957031-3.574219 3.972656-6.214844 7.640625-6.699219 3.664062-.484375 7.261718 1.289063 9.109375 4.492188 2.523437 4.375 1.027343 9.964844-3.347657 12.488281zm64-135.828125c5.050782 0 9.144532 4.09375 9.144532 9.144531 0 5.046875-4.09375 9.140625-9.144532 9.140625-5.046874 0-9.140624-4.09375-9.140624-9.140625 0-5.050781 4.09375-9.144531 9.140624-9.144531zm-22.945312-67.347656c3.199219-1.847656 7.203125-1.585938 10.136719.664062 2.933593 2.25 4.222656 6.046875 3.265625 9.617188-.953125 3.574218-3.96875 6.21875-7.636719 6.699218-3.664063.484376-7.261719-1.289062-9.109375-4.488281-2.527344-4.375-1.03125-9.964843 3.34375-12.492187zm-3.34375 140.492187c1.847656-3.203125 5.441406-4.976562 9.109375-4.496093 3.667969.484374 6.679687 3.125 7.636719 6.699218.960937 3.570313-.328125 7.367188-3.261719 9.621094-2.933594 2.25-6.9375 2.511719-10.140625.664062-4.371094-2.523437-5.871094-8.117187-3.34375-12.488281zm-50.195312-187.339843c1.847656-3.203126 5.445312-4.976563 9.113281-4.492188 3.664062.480469 6.679687 3.125 7.636719 6.699219.957031 3.570312-.332032 7.367187-3.269532 9.617187-2.933594 2.253906-6.933594 2.511719-10.136718.664063-4.371094-2.527344-5.871094-8.113281-3.347657-12.488281zm-133.800782-3.347657c3.203125-1.851562 7.203125-1.589843 10.136719.664063 2.933594 2.25 4.222656 6.046875 3.265625 9.617187-.957031 3.574219-3.96875 6.21875-7.636719 6.699219-3.664062.484375-7.261719-1.289062-9.109375-4.492188-2.527344-4.375-1.027344-9.964843 3.34375-12.488281zm5.519532 154.480469c-8.683594-21.050781-7.046876-44.949219 4.421874-64.621094s31.460938-32.863281 54.058594-35.675781v-32.421875c-1.34375 1.351562-2.769531 2.617188-4.265625 3.800781-4.019531 2.976563-9.683593 2.171875-12.714843-1.800781-3.03125-3.976562-2.308594-9.648438 1.625-12.738281 9.167968-7.617188 14.734374-18.71875 15.355468-30.625 0-5.046875 4.09375-9.140625 9.144532-9.140625 5.046874 0 9.140624 4.09375 9.140624 9.140625 1.84375 11.96875 7.554688 23.003906 16.261719 31.417969 2.367188 2.296874 3.3125 5.691406 2.476563 8.882812-.839844 3.191406-3.332032 5.683594-6.523438 6.523438-3.191406.835937-6.585937-.109376-8.882812-2.480469-.457032-.457031-1.742188-1.820313-3.332032-3.640625v33.082031c26.101563 3.226563 48.441407 20.25 58.480469 44.558594 10.039063 24.304687 6.21875 52.132812-9.996093 72.835937l11.519531 11.460938c-.179688-2.585938-.203125-4.402344-.203125-5.070313-.003906-5.042969 4.082031-9.128906 9.125-9.132812h.011718c5.039063.003906 9.125 4.078125 9.144532 9.113281-.179688 12.09375 3.5625 23.921875 10.667968 33.707031 3.074219 3.074219 3.558594 7.890625 1.15625 11.515625-2.402343 3.625-7.023437 5.054688-11.054687 3.421875-.273437-.109375-.492187-.359375-.757813-.5-.820312-.378906-1.582031-.882812-2.253906-1.492187l-.015625-.015625-.011719-.003907-.011718-.015624c-9.785156-7.121094-21.613282-10.871094-33.710938-10.695313-5.046875-.007813-9.136718-4.105469-9.132812-9.152344.003906-5.050781 4.101562-9.140625 9.152344-9.136719.640624 0 2.363281.027344 4.769531.195313l-11.351563-11.300781c-20.625 16.074218-48.296875 19.828125-72.464844 9.832031-1.855468 19.140625-18.257812 33.550781-37.476562 32.929687-19.222656-.621093-34.660156-16.058593-35.277344-35.277343-.621094-19.222657 13.785156-35.621094 32.925782-37.480469zm-59.0625-100.9375c1.847656-3.203125 5.445312-4.976562 9.109374-4.492188 3.667969.480469 6.683594 3.125 7.640626 6.699219.957031 3.570313-.332032 7.367188-3.265626 9.617188-2.933593 2.25-6.9375 2.515625-10.136718.664062-4.375-2.523437-5.871094-8.117187-3.347656-12.488281zm-10.457032 82.285156c-5.046875 0-9.140625-4.09375-9.140625-9.140625 0-5.050781 4.09375-9.144531 9.140625-9.144531 5.050782 0 9.144532 4.09375 9.144532 9.144531 0 5.046875-4.09375 9.140625-9.144532 9.140625zm10.457032 64c-1.847657-3.203125-1.585938-7.203125.664062-10.136718 2.25-2.933594 6.046875-4.222657 9.621094-3.265626 3.570312.957032 6.214844 3.972657 6.695312 7.636719.484375 3.667969-1.289062 7.261719-4.492187 9.113281-4.371094 2.523438-9.964844 1.027344-12.488281-3.347656zm0 0" data-original="#000000" class="active-path" data-old_color="#000000" fill="#0F7A8A"/><path d="m60.933594 362.976562.039062.058594.007813.03125c36.324219 69.09375 107.953125 112.363282 186.011719 112.363282 78.0625 0 149.6875-43.269532 186.011718-112.363282l.007813-.03125.039062-.058594c26.003907-49.339843 31.316407-106.996093 14.769531-160.257812l-.007812-.007812-.003906-.03125c-16.699219-53.203126-53.753906-97.644532-103.078125-123.644532l-.027344-.003906-.046875-.03125c-61.132812-32.191406-134.199219-32.191406-195.332031 0l-.046875.03125-.023438.003906c-49.328125 26-86.378906 70.441406-103.078125 123.644532l-.003906.03125-.007813.007812c-16.546874 53.261719-11.234374 110.917969 14.769532 160.257812zm186.058594-289.832031c106.039062 0 192 85.960938 192 192 0 106.035157-85.960938 192-192 192-106.039063 0-192-85.964843-192-192 .121093-105.992187 86.011718-191.882812 192-192zm0 0" data-original="#000000" class="active-path" data-old_color="#000000" fill="#0F7A8A"/><path d="m475.5625 265.144531c0 3.402344-.109375 6.777344-.257812 10.148438h9.035156c5.046875-.007813 9.136718-4.097657 9.144531-9.144531v-1.371094c-.007813-5.046875-4.097656-9.136719-9.144531-9.144532h-9.019532c.132813 3.160157.242188 6.320313.242188 9.511719zm0 0" data-original="#000000" class="active-path" data-old_color="#000000" fill="#0F7A8A"/><path d="m470.070312 347.289062-8.453124-3.496093c-2.265626 6.15625-4.820313 12.160156-7.589844 18.058593l8.578125 3.554688c4.667969 1.890625 9.984375-.347656 11.902343-5.003906l.398438-1.035156c1.003906-2.238282 1.054688-4.789063.140625-7.0625-.910156-2.277344-2.707031-4.085938-4.980469-5.015626zm0 0" data-original="#000000" class="active-path" data-old_color="#000000" fill="#0F7A8A"/></g> </svg>
