<?xml version="1.0"?>
<svg xmlns="http://www.w3.org/2000/svg" height="512px" viewBox="0 0 512 512" width="512px"><g><g id="solid"><path d="m208 280h16v16h-16z" data-original="#000000" class="active-path" data-old_color="#000000" fill="#0F7A8A"/><path d="m208 344h16v16h-16z" data-original="#000000" class="active-path" data-old_color="#000000" fill="#0F7A8A"/><path d="m320 168a56 56 0 0 0 8-111.419v-15.581h8a8 8 0 0 0 0-16h-32a8 8 0 0 0 0 16h8v15.581a56 56 0 0 0 8 111.419zm-8-88a8 8 0 0 1 16 0v27.056l11.578 5.789a8 8 0 1 1 -7.156 14.31l-16-8a8 8 0 0 1 -4.422-7.155zm-20.8-6.4a8 8 0 0 1 9.61 12.793 32.009 32.009 0 0 0 31.99 54.948 8 8 0 0 1 6.4 14.659 48.007 48.007 0 0 1 -48-82.4z" data-original="#000000" class="active-path" data-old_color="#000000" fill="#0F7A8A"/><path d="m208 216h16v16h-16z" data-original="#000000" class="active-path" data-old_color="#000000" fill="#0F7A8A"/><path d="m216.938 123.313-28.686 28.687h28.686z" data-original="#000000" class="active-path" data-old_color="#000000" fill="#0F7A8A"/><path d="m448.117 176 .821 279.977a8 8 0 0 1 -8 8.023h-200.938v16h224v-304z" data-original="#000000" class="active-path" data-old_color="#000000" fill="#0F7A8A"/><path d="m400.938 112h-8.938a72 72 0 0 1 -144 0h-15.062v48a8 8 0 0 1 -8 8h-48v248h224zm-160.938 256a8 8 0 0 1 -8 8h-32a8 8 0 0 1 -8-8v-32a8 8 0 0 1 8-8h32a8 8 0 0 1 8 8zm0-64a8 8 0 0 1 -8 8h-32a8 8 0 0 1 -8-8v-32a8 8 0 0 1 8-8h32a8 8 0 0 1 8 8zm0-64a8 8 0 0 1 -8 8h-32a8 8 0 0 1 -8-8v-32a8 8 0 0 1 8-8h32a8 8 0 0 1 8 8zm24 88h32a8 8 0 0 1 0 16h-32a8 8 0 0 1 0-16zm-8-24a8 8 0 0 1 8-8h64a8 8 0 0 1 0 16h-64a8 8 0 0 1 -8-8zm72 72h-64a8 8 0 0 1 0-16h64a8 8 0 0 1 0 16zm24-32h-24a8 8 0 0 1 0-16h24a8 8 0 0 1 0 16zm8-64h-96a8 8 0 0 1 0-16h96a8 8 0 0 1 0 16zm-104-40a8 8 0 0 1 8-8h32a8 8 0 0 1 0 16h-32a8 8 0 0 1 -8-8zm64 0a8 8 0 0 1 8-8h24a8 8 0 0 1 0 16h-24a8 8 0 0 1 -8-8zm40-24h-96a8 8 0 0 1 0-16h96a8 8 0 0 1 0 16z" data-original="#000000" class="active-path" data-old_color="#000000" fill="#0F7A8A"/><path d="m432.023 144h-15.085v280a8 8 0 0 1 -8 8h-200v16h223.062z" data-original="#000000" class="active-path" data-old_color="#000000" fill="#0F7A8A"/><path d="m74.137 299.6h8v136h-8z" transform="matrix(.943 -.334 .334 .943 -118.356 47.247)" data-original="#000000" class="active-path" data-old_color="#000000" fill="#0F7A8A"/><path d="m42.701 268.879h32v16h-32z" transform="matrix(.943 -.334 .334 .943 -89.157 35.537)" data-original="#000000" class="active-path" data-old_color="#000000" fill="#0F7A8A"/><path d="m63.087 241.373a16 16 0 1 0 -30.16 10.693l2.673 7.54 30.16-10.694z" data-original="#000000" class="active-path" data-old_color="#000000" fill="#0F7A8A"/><path d="m96.757 291.579h8v136h-8z" transform="matrix(.943 -.334 .334 .943 -114.375 54.346)" data-original="#000000" class="active-path" data-old_color="#000000" fill="#0F7A8A"/><path d="m129.073 451.182 1.867-15.117-27.84 10.39 11.115 10.7 5.747 12.728a8 8 0 1 0 14.582-6.584z" data-original="#000000" class="active-path" data-old_color="#000000" fill="#0F7A8A"/></g></g> </svg>
